<svg xmlns="http://www.w3.org/2000/svg" width="145.812" height="49" viewBox="0 0 145.812 49">
  <g id="Fm_Logo-02" data-name="Fm Logo-02" transform="translate(-93.4 -229)">
    <path id="Pfad_204" data-name="Pfad 204" d="M98.794,269.15Zm-5.287-5.322v2.286l1.965,1.143,3.286,1.893,2.929,1.715.071.036h0l2.608,1.5,2.572,1.5.071.036h0l2.965,1.715,3.286,1.893a4.542,4.542,0,0,0,3.965,0l3.286-1.893-5.287-3.036-2.965-1.715-8.287-4.787-2.322-1.357-.929-.536-2.036-1.179v-7.073l13.5-7.787V242.11l-13.5,7.787L93.4,252.933v10.895ZM104.4,272.4Zm2.643,1.536Zm3,1.715ZM98.794,263.078Zm16.539-28.648V229a4.29,4.29,0,0,1,1.965.464l3.286,1.893,2.929,1.715.071.036,2.608,1.5,2.572,1.5.071.036,2.965,1.715,3.286,1.893,1.965,1.143v25.219l-1.965,1.143L131.8,269.15l-2.965,1.715-2.643,1.536-2.608,1.5-.464.25-5.072-2.929-.179-.107,2.715-1.572,3-1.715h0l5.287-3.036,2.965-1.715V243.931l-2.965-1.715v19.075l-5.251,3.072-3,1.75-5.287,3.036-.429.25-.036-.036-5.215-3,5.715-3.286,5.287-3.036,3-1.75V239.109l-.036.036h0l-2.929-1.715V256.5l-5.287,3.036-8.716,5.037-.75-.429-2.536-1.465-1-.572-1-.572,14-8.073V234.43Zm-21.825,8.787v-2.286l1.965-1.143,16.789-9.716v6.073l-13.5,7.787-5.287,3.036v-3.751Z" fill="#007c88" fill-rule="evenodd"/>
    <g id="Gruppe_60" data-name="Gruppe 60" transform="translate(144.338 240.824)">
      <g id="Gruppe_58" data-name="Gruppe 58" transform="translate(0)">
        <path id="Pfad_205" data-name="Pfad 205" d="M238.393,264.065v2.751h4.822v1.929h-4.822v3.786H236V262.1h7.859v1.929h-5.465Z" transform="translate(-236 -262.1)" fill="#007c88"/>
        <path id="Pfad_206" data-name="Pfad 206" d="M272.13,272.53v-6.251l-3.072,5.144h-1.072l-3.036-5v6.108H262.7V262.1h2l3.894,6.465,3.822-6.465h1.965l.036,10.43Z" transform="translate(-253.163 -262.1)" fill="#007c88"/>
      </g>
      <g id="Gruppe_59" data-name="Gruppe 59" transform="translate(0 14.574)">
        <path id="Pfad_207" data-name="Pfad 207" d="M242.608,313.831l-2-2.893h-2.215v2.893H236V303.4h4.5a5.506,5.506,0,0,1,2.393.464,3.6,3.6,0,0,1,1.572,1.322,3.724,3.724,0,0,1,.536,2,3.381,3.381,0,0,1-.572,2,3.314,3.314,0,0,1-1.572,1.286l2.322,3.358ZM242,305.865a2.5,2.5,0,0,0-1.643-.464h-1.965v3.644h1.965A2.438,2.438,0,0,0,242,308.58a1.613,1.613,0,0,0,.572-1.357A1.669,1.669,0,0,0,242,305.865Z" transform="translate(-236 -303.221)" fill="#007c88"/>
        <path id="Pfad_208" data-name="Pfad 208" d="M274.573,311.9v1.929H266.5V303.4h7.859v1.929h-5.465v2.25h4.822v1.858h-4.822v2.393h5.68Z" transform="translate(-255.605 -303.221)" fill="#007c88"/>
        <path id="Pfad_209" data-name="Pfad 209" d="M295.286,313.009a5.354,5.354,0,0,1,0-9.43,5.966,5.966,0,0,1,2.893-.679,6.185,6.185,0,0,1,2.465.464,4.981,4.981,0,0,1,1.822,1.357l-1.536,1.429a3.3,3.3,0,0,0-2.608-1.214,3.4,3.4,0,0,0-1.715.429,3.114,3.114,0,0,0-1.179,1.179,3.644,3.644,0,0,0,0,3.429,3.113,3.113,0,0,0,1.179,1.179,3.394,3.394,0,0,0,1.715.429,3.281,3.281,0,0,0,2.608-1.25l1.536,1.429a4.817,4.817,0,0,1-1.857,1.393,6.067,6.067,0,0,1-2.465.464A5.173,5.173,0,0,1,295.286,313.009Z" transform="translate(-272.318 -302.9)" fill="#007c88"/>
        <path id="Pfad_210" data-name="Pfad 210" d="M331.608,313.831l-2-2.893h-2.215v2.893H325V303.4h4.5a5.505,5.505,0,0,1,2.393.464,3.6,3.6,0,0,1,1.572,1.322,3.724,3.724,0,0,1,.536,2,3.382,3.382,0,0,1-.572,2,3.314,3.314,0,0,1-1.572,1.286l2.322,3.358ZM331,305.865a2.5,2.5,0,0,0-1.643-.464h-1.965v3.644h1.965A2.438,2.438,0,0,0,331,308.58a1.613,1.613,0,0,0,.572-1.357A1.569,1.569,0,0,0,331,305.865Z" transform="translate(-293.208 -303.221)" fill="#007c88"/>
        <path id="Pfad_211" data-name="Pfad 211" d="M356.55,312.759a4.793,4.793,0,0,1-1.25-3.536V303.4h2.393v5.751c0,1.858.786,2.786,2.322,2.786a2.11,2.11,0,0,0,1.715-.679,3.157,3.157,0,0,0,.607-2.108V303.4h2.393v5.823a4.793,4.793,0,0,1-1.25,3.536,4.731,4.731,0,0,1-3.465,1.25A4.59,4.59,0,0,1,356.55,312.759Z" transform="translate(-312.685 -303.221)" fill="#007c88"/>
        <path id="Pfad_212" data-name="Pfad 212" d="M388.4,303.4h2.393v10.431H388.4Z" transform="translate(-333.961 -303.221)" fill="#007c88"/>
        <path id="Pfad_213" data-name="Pfad 213" d="M402.122,305.365H398.8V303.4h9.073v1.965h-3.322v8.466h-2.429Z" transform="translate(-340.647 -303.221)" fill="#007c88"/>
        <path id="Pfad_214" data-name="Pfad 214" d="M427.8,303.4h2.393v10.431H427.8Z" transform="translate(-359.288 -303.221)" fill="#007c88"/>
        <path id="Pfad_215" data-name="Pfad 215" d="M451.037,303.4v10.431h-1.965l-5.18-6.323v6.323H441.5V303.4h2l5.18,6.323V303.4Z" transform="translate(-368.094 -303.221)" fill="#007c88"/>
        <path id="Pfad_216" data-name="Pfad 216" d="M481.016,308.215h2.215v4.215a6.785,6.785,0,0,1-1.965,1,8.214,8.214,0,0,1-2.25.357,6.207,6.207,0,0,1-2.929-.679,5.353,5.353,0,0,1,0-9.43,6.152,6.152,0,0,1,2.965-.679,6.241,6.241,0,0,1,2.5.464,4.735,4.735,0,0,1,1.857,1.357l-1.536,1.429a3.578,3.578,0,0,0-2.679-1.179,3.669,3.669,0,0,0-1.786.429,3.207,3.207,0,0,0-1.215,1.179,3.436,3.436,0,0,0-.429,1.75,3.394,3.394,0,0,0,.429,1.715,2.972,2.972,0,0,0,1.215,1.179,3.53,3.53,0,0,0,1.75.429,3.955,3.955,0,0,0,1.857-.429Z" transform="translate(-388.535 -302.964)" fill="#007c88"/>
      </g>
    </g>
  </g>
</svg>
